<svg width="337" height="150" viewBox="0 0 337 150" fill="none" xmlns="http://www.w3.org/2000/svg">
<g filter="url(#filter0_d_70_904)">
<path d="M45.3143 44.3499C46.1206 39.5308 50.2912 36 55.1772 36H275.801C280.807 36 285.041 39.7006 285.711 44.6609L292.468 94.6609C293.279 100.661 288.613 106 282.558 106H46.812C40.6301 106 35.929 100.447 36.9491 94.3499L45.3143 44.3499Z" fill="white"/>
<path d="M45.5609 44.3911C46.347 39.6925 50.4134 36.25 55.1772 36.25H275.801C280.681 36.25 284.81 39.8581 285.463 44.6943L292.22 94.6943C293.011 100.545 288.461 105.75 282.558 105.75H46.812C40.7847 105.75 36.2011 100.336 37.1957 94.3911L45.5609 44.3911Z" stroke="#EBEBEB" stroke-width="0.5"/>
</g>
<path d="M107.012 70.944H100.676V72.96H104.312C103.88 75.084 102.62 76.344 99.866 76.344C97.598 76.344 95.402 75.084 95.402 71.664C95.402 68.838 96.68 66.804 100.01 66.804C101.756 66.804 103.376 67.542 103.862 69.288H106.778C106.49 66.768 103.988 64.788 100.082 64.788C94.844 64.788 92.594 67.956 92.594 71.574C92.594 75.192 94.718 78.36 100.154 78.36C102.17 78.36 104.006 77.586 105.05 76.326L105.428 78H107.012V70.944ZM111.516 73.23C111.516 71.574 112.416 70.008 114.828 70.008C117.24 70.008 118.14 71.574 118.14 73.23C118.14 74.886 117.24 76.452 114.828 76.452C112.416 76.452 111.516 74.886 111.516 73.23ZM108.924 73.23C108.924 75.858 110.562 78.36 114.828 78.36C119.094 78.36 120.732 75.858 120.732 73.23C120.732 70.602 119.094 68.1 114.828 68.1C110.562 68.1 108.924 70.602 108.924 73.23ZM129.43 75.336C129.43 77.136 129.664 78.216 132.688 78.216C133.444 78.216 133.93 78.162 134.596 78.072V76.272C134.002 76.29 133.426 76.308 132.814 76.308C131.968 76.308 131.914 75.714 131.914 74.616V70.26H134.506V68.46H131.914V65.508H129.43V68.46H127.45V70.26H129.43V75.336ZM138.165 73.23C138.165 71.574 139.065 70.008 141.477 70.008C143.889 70.008 144.789 71.574 144.789 73.23C144.789 74.886 143.889 76.452 141.477 76.452C139.065 76.452 138.165 74.886 138.165 73.23ZM135.573 73.23C135.573 75.858 137.211 78.36 141.477 78.36C145.743 78.36 147.381 75.858 147.381 73.23C147.381 70.602 145.743 68.1 141.477 68.1C137.211 68.1 135.573 70.602 135.573 73.23ZM160.885 70.116C163.225 70.116 164.107 71.682 164.107 73.266C164.107 74.886 163.225 76.452 160.885 76.452C158.563 76.452 157.681 74.886 157.681 73.266C157.681 71.682 158.563 70.116 160.885 70.116ZM155.305 81.636H157.789V76.686H157.825C158.005 77.262 159.499 78.36 161.479 78.36C165.115 78.36 166.699 75.714 166.699 73.266C166.699 70.854 165.115 68.208 161.479 68.208C159.985 68.208 158.563 68.676 157.825 69.828H157.789V68.46H155.305V81.636ZM168.367 78H170.851V64.932H168.367V78ZM183.178 71.304C183.178 70.062 183.034 68.1 178.048 68.1C175.222 68.1 173.368 68.874 173.008 71.376H175.438C175.528 70.314 176.41 69.792 178.048 69.792C179.488 69.792 180.748 70.062 180.748 71.16C180.748 71.898 180.37 72.024 176.806 72.366C175.222 72.51 172.522 72.744 172.522 75.372C172.522 77.244 173.926 78.36 176.41 78.36C179.2 78.36 180.406 77.514 180.892 77.046C180.964 77.406 181.144 78.27 182.764 78.27C183.61 78.27 184.042 78.144 184.528 78.054V76.308C184.33 76.344 183.952 76.362 183.718 76.362C183.556 76.362 183.178 76.344 183.178 75.822V71.304ZM180.694 74.166C180.694 76.272 178.444 76.776 177.112 76.776C176.266 76.776 175.114 76.542 175.114 75.282C175.114 74.472 175.564 74.058 177.436 73.842C179.2 73.644 179.974 73.554 180.694 73.248V74.166ZM188.868 77.838L188.31 78.99C188.022 79.584 187.536 79.728 186.87 79.728C186.33 79.728 185.826 79.71 185.628 79.692V81.6C186.114 81.618 186.762 81.636 187.176 81.636C189.246 81.636 189.858 81.33 190.614 79.692L195.816 68.46H193.17L190.182 75.282L187.122 68.46H184.422L188.868 77.838ZM196.685 78H199.169V64.932H196.685V78ZM201.326 78H203.81V68.46H201.326V78ZM201.326 66.948H203.81V64.932H201.326V66.948ZM205.409 75.012C205.499 77.928 208.721 78.36 210.755 78.36C213.707 78.36 216.029 77.532 216.029 75.102C216.029 72.888 213.977 72.582 210.845 72.132C208.451 71.79 208.217 71.664 208.217 70.89C208.217 70.386 208.973 69.792 210.377 69.792C211.223 69.792 212.879 69.954 213.077 71.376H215.669C215.525 68.316 211.979 68.1 210.503 68.1C208.901 68.1 205.733 68.46 205.733 71.178C205.733 73.356 207.281 73.698 210.233 74.094C212.915 74.454 213.329 74.706 213.329 75.444C213.329 76.344 211.979 76.668 210.737 76.668C209.837 76.668 208.181 76.452 208.109 75.012H205.409ZM218.341 75.336C218.341 77.136 218.575 78.216 221.599 78.216C222.355 78.216 222.841 78.162 223.507 78.072V76.272C222.913 76.29 222.337 76.308 221.725 76.308C220.879 76.308 220.825 75.714 220.825 74.616V70.26H223.417V68.46H220.825V65.508H218.341V68.46H216.361V70.26H218.341V75.336ZM224.411 75.012C224.501 77.928 227.723 78.36 229.757 78.36C232.709 78.36 235.031 77.532 235.031 75.102C235.031 72.888 232.979 72.582 229.847 72.132C227.453 71.79 227.219 71.664 227.219 70.89C227.219 70.386 227.975 69.792 229.379 69.792C230.225 69.792 231.881 69.954 232.079 71.376H234.671C234.527 68.316 230.981 68.1 229.505 68.1C227.903 68.1 224.735 68.46 224.735 71.178C224.735 73.356 226.283 73.698 229.235 74.094C231.917 74.454 232.331 74.706 232.331 75.444C232.331 76.344 230.981 76.668 229.739 76.668C228.839 76.668 227.183 76.452 227.111 75.012H224.411Z" fill="black"/>
<defs>
<filter id="filter0_d_70_904" x="0.809509" y="0" width="335.75" height="150" filterUnits="userSpaceOnUse" color-interpolation-filters="sRGB">
<feFlood flood-opacity="0" result="BackgroundImageFix"/>
<feColorMatrix in="SourceAlpha" type="matrix" values="0 0 0 0 0 0 0 0 0 0 0 0 0 0 0 0 0 0 127 0" result="hardAlpha"/>
<feOffset dx="4" dy="4"/>
<feGaussianBlur stdDeviation="20"/>
<feComposite in2="hardAlpha" operator="out"/>
<feColorMatrix type="matrix" values="0 0 0 0 1 0 0 0 0 1 0 0 0 0 1 0 0 0 0.25 0"/>
<feBlend mode="normal" in2="BackgroundImageFix" result="effect1_dropShadow_70_904"/>
<feBlend mode="normal" in="SourceGraphic" in2="effect1_dropShadow_70_904" result="shape"/>
</filter>
</defs>
</svg>
