<svg width="194" height="109" viewBox="0 0 194 109" fill="none" xmlns="http://www.w3.org/2000/svg">
<g filter="url(#filter0_d_70_1731)">
<path d="M40.1899 58H44.4199L44.2399 40.3H44.2999L52.1599 58H55.9999L63.9199 40.3H63.9799L63.7999 58H68.0299V36.58H61.6099L54.1699 53.2L46.6699 36.58H40.1899V58Z" fill="url(#paint0_linear_70_1731)"/>
<path d="M75.5365 50.05C75.5365 47.29 77.0365 44.68 81.0565 44.68C85.0765 44.68 86.5765 47.29 86.5765 50.05C86.5765 52.81 85.0765 55.42 81.0565 55.42C77.0365 55.42 75.5365 52.81 75.5365 50.05ZM71.2165 50.05C71.2165 54.43 73.9465 58.6 81.0565 58.6C88.1665 58.6 90.8965 54.43 90.8965 50.05C90.8965 45.67 88.1665 41.5 81.0565 41.5C73.9465 41.5 71.2165 45.67 71.2165 50.05Z" fill="url(#paint1_linear_70_1731)"/>
<path d="M97.1869 50.05C97.1869 47.29 98.6869 44.68 102.707 44.68C106.727 44.68 108.227 47.29 108.227 50.05C108.227 52.81 106.727 55.42 102.707 55.42C98.6869 55.42 97.1869 52.81 97.1869 50.05ZM92.8669 50.05C92.8669 54.43 95.5969 58.6 102.707 58.6C109.817 58.6 112.547 54.43 112.547 50.05C112.547 45.67 109.817 41.5 102.707 41.5C95.5969 41.5 92.8669 45.67 92.8669 50.05Z" fill="url(#paint2_linear_70_1731)"/>
<path d="M118.837 50.11C118.837 47.47 120.307 44.86 124.207 44.86C128.077 44.86 129.547 47.47 129.547 50.11C129.547 52.81 128.077 55.42 124.207 55.42C120.307 55.42 118.837 52.81 118.837 50.11ZM133.507 36.22H129.367V44.38H129.307C128.077 42.46 125.707 41.68 123.217 41.68C117.157 41.68 114.517 46.09 114.517 50.11C114.517 54.19 117.157 58.6 123.217 58.6C126.517 58.6 129.007 56.77 129.307 55.81H129.367V58H133.507V36.22Z" fill="url(#paint3_linear_70_1731)"/>
<path d="M142.288 57.73L141.358 59.65C140.878 60.64 140.068 60.88 138.958 60.88C138.058 60.88 137.218 60.85 136.888 60.82V64C137.698 64.03 138.778 64.06 139.468 64.06C142.918 64.06 143.938 63.55 145.198 60.82L153.868 42.1H149.458L144.478 53.47L139.378 42.1H134.878L142.288 57.73Z" fill="url(#paint4_linear_70_1731)"/>
</g>
<defs>
<filter id="filter0_d_70_1731" x="0.189941" y="0.219971" width="193.678" height="107.84" filterUnits="userSpaceOnUse" color-interpolation-filters="sRGB">
<feFlood flood-opacity="0" result="BackgroundImageFix"/>
<feColorMatrix in="SourceAlpha" type="matrix" values="0 0 0 0 0 0 0 0 0 0 0 0 0 0 0 0 0 0 127 0" result="hardAlpha"/>
<feOffset dy="4"/>
<feGaussianBlur stdDeviation="20"/>
<feComposite in2="hardAlpha" operator="out"/>
<feColorMatrix type="matrix" values="0 0 0 0 0.880833 0 0 0 0 1 0 0 0 0 0.541667 0 0 0 0.66 0"/>
<feBlend mode="normal" in2="BackgroundImageFix" result="effect1_dropShadow_70_1731"/>
<feBlend mode="normal" in="SourceGraphic" in2="effect1_dropShadow_70_1731" result="shape"/>
</filter>
<linearGradient id="paint0_linear_70_1731" x1="97.0288" y1="36.22" x2="97.0288" y2="64.06" gradientUnits="userSpaceOnUse">
<stop offset="0.875" stop-color="#FFDA57"/>
</linearGradient>
<linearGradient id="paint1_linear_70_1731" x1="97.0288" y1="36.22" x2="97.0288" y2="64.06" gradientUnits="userSpaceOnUse">
<stop offset="0.875" stop-color="#FFDA57"/>
</linearGradient>
<linearGradient id="paint2_linear_70_1731" x1="97.0288" y1="36.22" x2="97.0288" y2="64.06" gradientUnits="userSpaceOnUse">
<stop offset="0.875" stop-color="#FFDA57"/>
</linearGradient>
<linearGradient id="paint3_linear_70_1731" x1="97.0288" y1="36.22" x2="97.0288" y2="64.06" gradientUnits="userSpaceOnUse">
<stop offset="0.875" stop-color="#FFDA57"/>
</linearGradient>
<linearGradient id="paint4_linear_70_1731" x1="97.0288" y1="36.22" x2="97.0288" y2="64.06" gradientUnits="userSpaceOnUse">
<stop offset="0.875" stop-color="#FFDA57"/>
</linearGradient>
</defs>
</svg>
