<svg width="921" height="373" viewBox="0 0 921 373" fill="none" xmlns="http://www.w3.org/2000/svg">
<g filter="url(#filter0_d_101_39)">
<path d="M53.5889 59.5174C54.7182 57.8991 57.2603 58.7208 57.2288 60.6939L57.0564 71.4637C57.0515 71.7676 57.116 72.0686 57.2449 72.3438L61.8125 82.0986C62.6493 83.8858 60.6666 85.6765 58.9736 84.6626L49.7329 79.1284C49.4721 78.9722 49.1792 78.8776 48.8764 78.8516L38.1447 77.9298C36.1786 77.761 35.6192 75.1485 37.3437 74.1893L46.7568 68.9537C47.0224 68.806 47.2509 68.5996 47.4248 68.3504L53.5889 59.5174Z" fill="#FFE000"/>
</g>
<g filter="url(#filter1_d_101_39)">
<path d="M793.552 203.14C792.644 202.753 792.787 201.425 793.756 201.239L803.409 199.385C803.558 199.357 803.699 199.295 803.821 199.203L811.684 193.305C812.473 192.713 813.552 193.5 813.229 194.433L810.007 203.719C809.957 203.863 809.941 204.016 809.959 204.167L811.136 213.926C811.254 214.905 810.032 215.446 809.386 214.7L802.955 207.266C802.855 207.151 802.731 207.061 802.591 207.001L793.552 203.14Z" fill="#E9EEDF"/>
</g>
<g filter="url(#filter2_d_101_39)">
<path d="M167.595 269.04C167.345 268.086 168.482 267.384 169.223 268.036L176.604 274.528C176.718 274.628 176.853 274.702 177 274.742L186.48 277.34C187.432 277.601 187.47 278.936 186.536 279.252L177.223 282.398C177.079 282.446 176.948 282.527 176.84 282.634L169.85 289.545C169.148 290.239 167.972 289.605 168.166 288.637L170.098 278.999C170.128 278.85 170.124 278.696 170.085 278.549L167.595 269.04Z" fill="#AF99EE"/>
</g>
<g filter="url(#filter3_d_101_39)">
<path d="M614.565 71.7949C615.457 71.3732 616.356 72.3613 615.853 73.2096L613.102 77.8401C613.025 77.9707 612.978 78.1174 612.966 78.2688L612.524 83.6363C612.444 84.6197 611.138 84.9042 610.656 84.0437L608.021 79.3467C607.946 79.2142 607.843 79.1004 607.718 79.0139L603.29 75.948C602.479 75.3863 602.885 74.1138 603.871 74.1259L609.257 74.1924C609.409 74.1943 609.559 74.1615 609.696 74.0965L614.565 71.7949Z" fill="#DEFF98"/>
</g>
<g filter="url(#filter4_d_101_39)">
<circle cx="857.691" cy="55.3802" r="18.8048" transform="rotate(-27.6219 857.691 55.3802)" fill="#D6FFFD" fill-opacity="0.89" shape-rendering="crispEdges"/>
</g>
<path d="M885.179 45.4316C885.494 45.5262 885.585 45.6185 885.604 45.6435C885.604 45.6755 885.591 45.8039 885.404 46.0744C885.167 46.4157 884.742 46.8468 884.102 47.3577C882.83 48.3734 880.858 49.5906 878.31 50.9291C873.225 53.6008 865.965 56.6952 857.737 59.5716C849.509 62.4481 841.902 64.5514 836.26 65.6299C833.433 66.1702 831.132 66.4469 829.505 66.4447C828.686 66.4436 828.085 66.3714 827.687 66.252C827.371 66.1574 827.281 66.0651 827.261 66.04C827.261 66.008 827.274 65.8797 827.462 65.6092C827.699 65.2678 828.124 64.8368 828.764 64.3259C830.035 63.3102 832.008 62.093 834.555 60.7544C839.64 58.0828 846.901 54.9884 855.129 52.1119C863.357 49.2355 870.964 47.1322 876.606 46.0537C879.433 45.5133 881.734 45.2367 883.361 45.2389C884.18 45.24 884.781 45.3122 885.179 45.4316Z" stroke="#FF5757" stroke-width="1.5"/>
<g filter="url(#filter5_d_101_39)">
<circle cx="83.5543" cy="309.95" r="18.8048" transform="rotate(-0.686909 83.5543 309.95)" fill="#FAE6D4"/>
</g>
<path d="M112.567 313.532C112.805 313.759 112.844 313.882 112.85 313.914C112.836 313.942 112.766 314.051 112.476 314.207C112.111 314.404 111.536 314.596 110.734 314.761C109.141 315.091 106.831 315.283 103.953 315.322C98.2099 315.4 90.3351 314.87 81.6968 313.708C73.0585 312.545 65.3238 310.974 59.8053 309.38C57.0404 308.581 54.8637 307.786 53.4138 307.046C52.6845 306.675 52.1812 306.338 51.8804 306.051C51.6422 305.824 51.6036 305.701 51.5972 305.67C51.6117 305.641 51.6814 305.532 51.9713 305.376C52.3371 305.179 52.9115 304.988 53.7132 304.822C55.3069 304.492 57.6166 304.301 60.4942 304.261C66.2378 304.183 74.1126 304.713 82.7509 305.876C91.3892 307.038 99.1239 308.609 104.642 310.203C107.407 311.002 109.584 311.798 111.034 312.537C111.763 312.909 112.267 313.245 112.567 313.532Z" stroke="#FF5757" stroke-width="1.5"/>
<circle cx="257" cy="91" r="5" fill="#FFA800"/>
<circle cx="563" cy="294" r="5" fill="#FF5757"/>
<g clip-path="url(#clip0_101_39)">
<path d="M158.791 141.542L164.203 145.234" stroke="#2BBAE7" stroke-width="2" stroke-linecap="round" stroke-linejoin="round"/>
<path d="M173.796 156.766L176.994 160.61" stroke="white" stroke-width="2" stroke-linecap="round" stroke-linejoin="round"/>
<path d="M156.554 149.858L161.536 150.315" stroke="#FFE000" stroke-width="2" stroke-linecap="round" stroke-linejoin="round"/>
<path d="M176.464 151.685L181.446 152.142" stroke="#E72BBD" stroke-opacity="0.94" stroke-width="2" stroke-linecap="round" stroke-linejoin="round"/>
<path d="M159.85 160.173L163.234 155.797" stroke="#1654CC" stroke-width="2" stroke-linecap="round" stroke-linejoin="round"/>
<path d="M174.766 146.203L179.954 143.058" stroke="#F1BEC7" stroke-width="2" stroke-linecap="round" stroke-linejoin="round"/>
<path d="M167.721 164.942L168.315 158.464" stroke="#DEFF98" stroke-width="2" stroke-linecap="round" stroke-linejoin="round"/>
<path d="M169.685 143.536L171.008 138.403" stroke="#36BE64" stroke-width="2" stroke-linecap="round" stroke-linejoin="round"/>
</g>
<g clip-path="url(#clip1_101_39)">
<path d="M667.915 227.667L673.328 231.359" stroke="#2BBAE7" stroke-width="2" stroke-linecap="round" stroke-linejoin="round"/>
<path d="M682.921 242.89L686.119 246.734" stroke="white" stroke-width="2" stroke-linecap="round" stroke-linejoin="round"/>
<path d="M665.679 235.982L670.66 236.44" stroke="#FFE000" stroke-width="2" stroke-linecap="round" stroke-linejoin="round"/>
<path d="M685.588 237.809L690.57 238.266" stroke="#E72BBD" stroke-opacity="0.94" stroke-width="2" stroke-linecap="round" stroke-linejoin="round"/>
<path d="M668.975 246.297L672.359 241.921" stroke="#1654CC" stroke-width="2" stroke-linecap="round" stroke-linejoin="round"/>
<path d="M683.89 232.328L689.078 229.183" stroke="#F1BEC7" stroke-width="2" stroke-linecap="round" stroke-linejoin="round"/>
<path d="M676.845 251.067L677.44 244.588" stroke="#DEFF98" stroke-width="2" stroke-linecap="round" stroke-linejoin="round"/>
<path d="M678.809 229.66L680.132 224.527" stroke="#36BE64" stroke-width="2" stroke-linecap="round" stroke-linejoin="round"/>
</g>
<defs>
<filter id="filter0_d_101_39" x="0.313965" y="22.6578" width="105.697" height="106.299" filterUnits="userSpaceOnUse" color-interpolation-filters="sRGB">
<feFlood flood-opacity="0" result="BackgroundImageFix"/>
<feColorMatrix in="SourceAlpha" type="matrix" values="0 0 0 0 0 0 0 0 0 0 0 0 0 0 0 0 0 0 127 0" result="hardAlpha"/>
<feOffset dx="4" dy="4"/>
<feGaussianBlur stdDeviation="20"/>
<feComposite in2="hardAlpha" operator="out"/>
<feColorMatrix type="matrix" values="0 0 0 0 0.959333 0 0 0 0 1 0 0 0 0 0.491667 0 0 0 0.6 0"/>
<feBlend mode="normal" in2="BackgroundImageFix" result="effect1_dropShadow_101_39"/>
<feBlend mode="normal" in="SourceGraphic" in2="effect1_dropShadow_101_39" result="shape"/>
</filter>
<filter id="filter1_d_101_39" x="756.944" y="157.1" width="100.344" height="101.949" filterUnits="userSpaceOnUse" color-interpolation-filters="sRGB">
<feFlood flood-opacity="0" result="BackgroundImageFix"/>
<feColorMatrix in="SourceAlpha" type="matrix" values="0 0 0 0 0 0 0 0 0 0 0 0 0 0 0 0 0 0 127 0" result="hardAlpha"/>
<feOffset dx="4" dy="4"/>
<feGaussianBlur stdDeviation="20"/>
<feComposite in2="hardAlpha" operator="out"/>
<feColorMatrix type="matrix" values="0 0 0 0 0.970833 0 0 0 0 0.926337 0 0 0 0 0.926337 0 0 0 0.6 0"/>
<feBlend mode="normal" in2="BackgroundImageFix" result="effect1_dropShadow_101_39"/>
<feBlend mode="normal" in="SourceGraphic" in2="effect1_dropShadow_101_39" result="shape"/>
</filter>
<filter id="filter2_d_101_39" x="131.56" y="231.782" width="99.6558" height="102.055" filterUnits="userSpaceOnUse" color-interpolation-filters="sRGB">
<feFlood flood-opacity="0" result="BackgroundImageFix"/>
<feColorMatrix in="SourceAlpha" type="matrix" values="0 0 0 0 0 0 0 0 0 0 0 0 0 0 0 0 0 0 127 0" result="hardAlpha"/>
<feOffset dx="4" dy="4"/>
<feGaussianBlur stdDeviation="20"/>
<feComposite in2="hardAlpha" operator="out"/>
<feColorMatrix type="matrix" values="0 0 0 0 1 0 0 0 0 1 0 0 0 0 1 0 0 0 0.6 0"/>
<feBlend mode="normal" in2="BackgroundImageFix" result="effect1_dropShadow_101_39"/>
<feBlend mode="normal" in="SourceGraphic" in2="effect1_dropShadow_101_39" result="shape"/>
</filter>
<filter id="filter3_d_101_39" x="598.857" y="71.6943" width="21.1406" height="20.8611" filterUnits="userSpaceOnUse" color-interpolation-filters="sRGB">
<feFlood flood-opacity="0" result="BackgroundImageFix"/>
<feColorMatrix in="SourceAlpha" type="matrix" values="0 0 0 0 0 0 0 0 0 0 0 0 0 0 0 0 0 0 127 0" result="hardAlpha"/>
<feOffset dy="4"/>
<feGaussianBlur stdDeviation="2"/>
<feComposite in2="hardAlpha" operator="out"/>
<feColorMatrix type="matrix" values="0 0 0 0 1 0 0 0 0 1 0 0 0 0 1 0 0 0 0.25 0"/>
<feBlend mode="normal" in2="BackgroundImageFix" result="effect1_dropShadow_101_39"/>
<feBlend mode="normal" in="SourceGraphic" in2="effect1_dropShadow_101_39" result="shape"/>
</filter>
<filter id="filter4_d_101_39" x="802.882" y="0.571503" width="117.617" height="117.617" filterUnits="userSpaceOnUse" color-interpolation-filters="sRGB">
<feFlood flood-opacity="0" result="BackgroundImageFix"/>
<feColorMatrix in="SourceAlpha" type="matrix" values="0 0 0 0 0 0 0 0 0 0 0 0 0 0 0 0 0 0 127 0" result="hardAlpha"/>
<feOffset dx="4" dy="4"/>
<feGaussianBlur stdDeviation="20"/>
<feComposite in2="hardAlpha" operator="out"/>
<feColorMatrix type="matrix" values="0 0 0 0 0.369531 0 0 0 0 0.895833 0 0 0 0 0.864255 0 0 0 0.25 0"/>
<feBlend mode="normal" in2="BackgroundImageFix" result="effect1_dropShadow_101_39"/>
<feBlend mode="normal" in="SourceGraphic" in2="effect1_dropShadow_101_39" result="shape"/>
</filter>
<filter id="filter5_d_101_39" x="28.7495" y="255.145" width="117.61" height="117.61" filterUnits="userSpaceOnUse" color-interpolation-filters="sRGB">
<feFlood flood-opacity="0" result="BackgroundImageFix"/>
<feColorMatrix in="SourceAlpha" type="matrix" values="0 0 0 0 0 0 0 0 0 0 0 0 0 0 0 0 0 0 127 0" result="hardAlpha"/>
<feOffset dx="4" dy="4"/>
<feGaussianBlur stdDeviation="20"/>
<feComposite in2="hardAlpha" operator="out"/>
<feColorMatrix type="matrix" values="0 0 0 0 0.369531 0 0 0 0 0.895833 0 0 0 0 0.864255 0 0 0 0.25 0"/>
<feBlend mode="normal" in2="BackgroundImageFix" result="effect1_dropShadow_101_39"/>
<feBlend mode="normal" in="SourceGraphic" in2="effect1_dropShadow_101_39" result="shape"/>
</filter>
<clipPath id="clip0_101_39">
<rect width="30" height="30" fill="white" transform="translate(147.875 149.062) rotate(-39.7573)"/>
</clipPath>
<clipPath id="clip1_101_39">
<rect width="30" height="30" fill="white" transform="translate(657 235.186) rotate(-39.7573)"/>
</clipPath>
</defs>
</svg>
